<svg xmlns="http://www.w3.org/2000/svg" viewBox="0 0 356.26 356.26"><defs><style>.cls-1{fill:#fe620b;}.cls-1,.cls-2{stroke:#000;stroke-miterlimit:10;}.cls-2{fill:#363636;}</style></defs><g id="Layer_2" data-name="Layer 2"><g id="Layer_1-2" data-name="Layer 1"><rect class="cls-1" x="-10.58" y="63.96" width="200" height="50.91" transform="translate(-37.04 89.42) rotate(-45)"/><rect class="cls-1" x="241.38" y="-10.58" width="50.91" height="200" transform="translate(14.93 214.87) rotate(-45)"/><rect class="cls-1" x="166.84" y="241.38" width="200" height="50.91" transform="translate(-110.53 266.84) rotate(-45)"/><rect class="cls-1" x="63.96" y="166.84" width="50.91" height="200" transform="translate(-162.49 141.38) rotate(-45)"/><rect class="cls-2" x="47.25" y="152.67" width="50.91" height="50.91" transform="translate(-104.66 103.58) rotate(-45)"/><rect class="cls-2" x="152.67" y="47.25" width="50.91" height="50.91" transform="translate(0.76 147.25) rotate(-45)"/><rect class="cls-2" x="152.67" y="258.09" width="50.91" height="50.91" transform="translate(-148.33 209.01) rotate(-45)"/><rect class="cls-2" x="258.09" y="152.67" width="50.91" height="50.91" transform="translate(-42.91 252.67) rotate(-45)"/><rect class="cls-1" x="129.04" y="129.04" width="98.18" height="98.18" transform="translate(-73.78 178.13) rotate(-45)"/><rect class="cls-2" x="76.33" y="99.96" width="98.18" height="50.91" transform="translate(-51.95 125.42) rotate(-45)"/><rect class="cls-2" x="99.96" y="181.75" width="50.91" height="98.18" transform="translate(-126.49 156.29) rotate(-45)"/><rect class="cls-2" x="181.75" y="205.38" width="98.18" height="50.91" transform="translate(-95.62 230.84) rotate(-45)"/><rect class="cls-2" x="205.38" y="76.33" width="50.91" height="98.18" transform="translate(-21.07 199.96) rotate(-45)"/></g></g></svg>