<?xml version="1.0" standalone="no"?>
<!DOCTYPE svg PUBLIC "-//W3C//DTD SVG 20010904//EN"
 "http://www.w3.org/TR/2001/REC-SVG-20010904/DTD/svg10.dtd">
<svg version="1.0" xmlns="http://www.w3.org/2000/svg"
 width="1024.000000pt" height="1024.000000pt" viewBox="0 0 1024.000000 1024.000000"
 preserveAspectRatio="xMidYMid meet">

<g transform="translate(0.000000,1024.000000) scale(0.100000,-0.100000)"
fill="#000000" stroke="none">
<path d="M4800 8855 c-450 -47 -804 -147 -1215 -344 -259 -125 -531 -289 -694
-422 -57 -46 -73 -53 -139 -65 -126 -22 -234 -114 -263 -225 -7 -26 -27 -63
-48 -86 -132 -146 -171 -194 -259 -309 -274 -363 -460 -715 -598 -1134 -45
-137 -112 -415 -129 -537 -3 -21 -8 -47 -10 -58 -42 -196 -48 -811 -10 -1024
2 -13 7 -45 11 -70 34 -251 132 -614 235 -872 80 -201 227 -476 359 -673 184
-273 515 -619 816 -853 402 -313 927 -571 1394 -682 69 -17 143 -33 165 -36
22 -4 47 -8 55 -10 8 -2 29 -6 45 -9 114 -17 183 -28 205 -33 56 -12 615 -15
723 -4 324 34 716 125 972 226 813 320 1505 906 1928 1630 202 348 384 869
443 1270 43 300 46 342 41 660 -3 171 -8 326 -11 345 -4 19 -14 73 -22 120
-96 566 -255 998 -532 1445 -60 97 -232 335 -243 335 -3 0 -11 -19 -18 -42
-17 -55 -54 -113 -108 -170 -31 -31 -43 -50 -37 -60 4 -7 41 -59 81 -114 259
-361 447 -819 532 -1299 6 -33 13 -69 15 -80 6 -33 18 -103 21 -128 25 -198
27 -250 22 -477 -12 -472 -84 -832 -252 -1260 -47 -120 -201 -426 -254 -505
-44 -65 -48 -75 -28 -75 12 0 27 -19 59 -77 39 -71 10 -178 -65 -237 -31 -25
-49 -31 -100 -34 -51 -3 -70 1 -112 22 -33 17 -51 22 -54 14 -9 -27 -128 -150
-321 -332 -139 -131 -386 -309 -620 -446 -390 -229 -797 -363 -1290 -425 -106
-13 -544 -17 -667 -6 -112 10 -154 16 -273 36 -485 84 -867 239 -1311 531
-370 243 -688 548 -937 898 -212 298 -376 662 -477 1059 -24 95 -46 186 -49
202 -8 47 -44 267 -50 300 -2 17 -5 39 -5 51 -1 13 -20 34 -57 59 -184 127
-258 344 -186 551 49 139 108 211 236 286 32 19 46 34 46 49 0 12 4 38 10 58
5 20 28 111 50 202 64 268 120 421 246 669 98 195 184 336 285 471 88 119 236
294 247 294 4 0 32 -14 62 -30 49 -26 65 -30 140 -30 72 0 93 4 141 28 148 72
228 247 178 388 -11 30 -22 61 -25 70 -11 32 289 228 546 358 342 174 661 272
1060 328 182 25 767 24 870 -2 8 -2 38 -6 65 -10 90 -11 318 -63 440 -100 347
-105 726 -301 1042 -538 45 -34 85 -68 88 -75 2 -7 -6 -40 -20 -73 -30 -70
-41 -157 -27 -215 l9 -42 -74 -51 -74 -52 -67 59 c-223 196 -663 451 -942 547
-460 158 -919 195 -1356 110 -601 -118 -1159 -422 -1589 -866 -125 -129 -176
-188 -264 -308 l-61 -83 77 -45 c56 -31 82 -42 93 -35 8 5 44 47 80 94 102
133 196 233 320 342 282 248 558 425 860 549 135 56 190 77 190 73 0 -2 -24
-22 -52 -43 -79 -57 -83 -60 -192 -159 -100 -89 -283 -290 -370 -403 -117
-154 -256 -395 -359 -622 l-34 -75 -89 13 c-127 20 -209 31 -212 28 -1 -1 11
-31 28 -66 16 -35 30 -76 30 -92 0 -32 17 -41 100 -51 81 -10 116 -16 210 -31
47 -8 105 -17 130 -20 25 -3 61 -7 80 -10 l35 -6 0 94 0 95 -54 5 c-29 3 -55
8 -58 11 -17 17 203 416 305 556 243 331 512 572 884 791 98 58 128 68 96 32
-26 -29 -116 -216 -162 -336 -59 -153 -119 -339 -152 -475 l-28 -113 -29 3
c-27 3 -31 8 -42 51 -37 147 -226 201 -345 99 -129 -110 -97 -304 60 -370 39
-16 154 -12 172 6 7 7 19 7 35 1 40 -15 139 -97 168 -139 32 -46 65 -131 65
-167 0 -17 4 -23 9 -17 9 9 13 32 26 144 28 248 75 458 157 704 57 171 121
324 196 471 l51 100 0 -687 1 -688 -119 0 -118 0 -6 -74 c-4 -40 -9 -80 -13
-90 -5 -14 7 -16 125 -16 l131 0 0 -460 0 -460 -425 0 -425 0 0 40 c0 35 40
340 56 425 17 92 44 252 44 261 0 6 -30 11 -77 11 -43 0 -84 2 -92 4 -18 5
-31 -41 -60 -206 -17 -102 -27 -169 -56 -400 -2 -16 -4 -54 -4 -82 l-1 -53
-355 0 -355 0 0 43 c0 97 62 444 106 597 16 56 17 61 29 116 l7 30 -65 12
c-128 24 -120 29 -156 -105 -17 -65 -40 -149 -52 -186 -11 -38 -26 -103 -32
-145 l-12 -77 -60 -6 -60 -6 59 -1 59 -2 -7 -47 c-3 -27 -9 -87 -12 -135 l-7
-88 -295 0 -294 0 7 78 c3 42 11 95 16 117 19 89 24 85 -107 85 l-115 0 7 58
c3 31 4 54 0 51 -3 -3 -9 -28 -12 -55 -3 -27 -10 -54 -16 -61 -7 -9 -2 -22 20
-47 112 -128 150 -310 98 -473 -6 -18 0 -26 31 -47 21 -14 41 -26 45 -26 3 0
9 29 13 64 l7 63 127 6 c137 7 1355 10 1362 3 2 -2 0 -125 -4 -273 -12 -360
-12 -500 -3 -609 l8 -91 90 35 c86 35 89 37 81 61 -11 34 -4 300 8 322 5 10 9
112 9 227 0 115 3 237 6 271 l7 61 428 0 429 0 0 -505 c0 -278 2 -505 5 -505
3 0 25 14 48 31 23 16 63 43 90 59 l47 30 0 445 0 446 291 -1 290 -2 9 -24
c15 -38 92 -115 135 -135 22 -10 56 -19 76 -19 33 0 37 -3 43 -31 3 -17 6
-178 6 -358 l1 -326 79 -37 c43 -21 84 -38 90 -38 5 0 11 17 11 38 1 20 3 48
6 62 10 68 3 515 -11 634 l-15 130 31 63 c27 56 30 70 26 128 -10 116 -83 202
-192 225 -94 19 -161 -5 -230 -81 l-44 -49 -301 0 -301 0 0 460 0 460 253 0
253 0 31 -41 c41 -53 84 -84 137 -100 l43 -13 31 -125 c17 -69 38 -175 47
-236 9 -60 18 -119 20 -130 3 -16 20 -24 84 -38 143 -32 237 -100 292 -212 23
-47 30 -76 32 -132 l2 -73 97 0 98 0 -33 43 c-61 80 -115 250 -103 325 5 32 2
34 -80 88 -47 30 -113 68 -147 83 l-63 28 -17 94 c-10 52 -32 150 -48 218 -30
123 -30 123 -11 145 43 47 57 88 57 172 0 76 -2 84 -35 133 -66 98 -163 137
-264 107 -66 -20 -123 -62 -153 -113 l-25 -43 -249 0 -249 0 0 682 c0 394 4
678 9 673 12 -14 113 -243 155 -351 80 -210 149 -465 195 -714 34 -183 25
-168 74 -123 23 21 59 49 79 63 44 29 45 31 18 170 -69 354 -205 755 -330 972
-22 39 -39 72 -37 74 6 6 244 -133 317 -184 316 -223 536 -451 756 -786 78
-120 224 -397 224 -427 0 -13 -23 -18 -122 -28 -68 -7 -132 -14 -143 -16 -11
-1 -29 -3 -40 -4 -19 -1 -20 -8 -20 -91 l0 -90 42 0 c69 0 497 65 798 121 212
40 535 121 535 135 0 9 -69 116 -138 214 -142 200 -217 292 -344 426 -38 39
-68 73 -68 77 0 3 21 20 47 37 42 28 50 31 68 19 88 -57 128 -71 209 -76 161
-11 291 64 372 212 38 71 44 195 13 290 -25 74 -102 169 -173 210 -62 36 -153
65 -200 63 -37 -1 -50 6 -131 71 -200 160 -521 357 -775 473 -293 134 -512
204 -816 262 -315 60 -699 80 -984 51z m-1940 -956 c100 -30 160 -150 125
-249 -70 -198 -355 -172 -380 34 -6 43 -3 62 13 97 29 62 44 78 99 105 54 26
88 29 143 13z m4787 -95 c99 -61 136 -203 81 -309 -41 -79 -111 -119 -207
-119 -131 2 -221 98 -221 237 0 175 197 284 347 191z m-1600 -50 c223 -92 445
-215 628 -347 194 -139 464 -408 629 -625 59 -79 106 -145 104 -146 -8 -8
-309 -78 -388 -91 -19 -3 -59 -10 -88 -16 -30 -6 -55 -9 -56 -7 -2 1 -41 82
-89 178 -137 280 -236 433 -426 660 -123 147 -236 257 -386 375 -59 47 -103
85 -97 85 6 0 82 -30 169 -66z m-57 -1309 c31 -16 48 -65 35 -104 -8 -25 -54
-51 -90 -51 -32 0 -75 44 -75 77 0 74 64 112 130 78z m83 -1127 c46 -24 60
-74 35 -121 -29 -55 -100 -65 -143 -19 -35 36 -29 85 15 125 33 29 59 34 93
15z"/>
<path d="M6954 6873 c-32 -35 -24 -42 10 -8 21 21 33 26 54 21 20 -5 23 -4 12
4 -25 17 -50 11 -76 -17z"/>
<path d="M7060 6858 c-12 -8 -12 -9 2 -5 9 3 19 1 22 -6 3 -9 5 -9 5 0 1 18
-13 23 -29 11z"/>
<path d="M6992 6828 c5 -15 28 -23 28 -10 0 5 -7 13 -16 16 -10 4 -14 1 -12
-6z"/>
<path d="M6930 6820 c0 -25 23 -52 56 -66 38 -16 56 -10 88 25 17 19 17 21 3
21 -10 0 -17 -6 -17 -13 0 -22 -41 -36 -70 -23 -28 12 -51 37 -44 48 2 4 0 9
-6 13 -5 3 -10 1 -10 -5z"/>
<path d="M7080 6819 c0 -5 5 -7 10 -4 6 3 10 8 10 11 0 2 -4 4 -10 4 -5 0 -10
-5 -10 -11z"/>
<path d="M6359 6894 c17 -14 30 -28 29 -32 -1 -4 4 -18 10 -32 10 -24 11 -24
11 -2 1 12 -4 22 -11 22 -6 0 -8 3 -5 7 8 7 -41 63 -56 63 -5 0 5 -12 22 -26z"/>
<path d="M6190 6895 c-11 -13 -10 -14 4 -9 9 3 16 10 16 15 0 13 -6 11 -20 -6z"/>
<path d="M6325 6890 c-3 -5 1 -10 10 -10 9 0 13 5 10 10 -3 6 -8 10 -10 10 -2
0 -7 -4 -10 -10z"/>
<path d="M6161 6813 c-1 -25 3 -33 17 -33 11 0 13 3 6 8 -7 4 -14 18 -17 32
-4 21 -4 20 -6 -7z"/>
<path d="M6338 6793 c7 -3 16 -2 19 1 4 3 -2 6 -13 5 -11 0 -14 -3 -6 -6z"/>
<path d="M6180 6732 c0 -13 68 -48 76 -39 4 4 2 7 -5 7 -7 0 -26 9 -42 21 -16
11 -29 16 -29 11z"/>
<path d="M6365 6730 c-3 -5 -15 -10 -26 -10 -10 0 -19 -4 -19 -10 0 -5 -9 -10
-19 -10 -11 0 -23 -4 -26 -10 -9 -15 16 -12 61 9 40 18 65 41 45 41 -5 0 -13
-4 -16 -10z"/>
<path d="M2610 6609 c-64 -10 -114 -34 -162 -77 -93 -83 -116 -222 -57 -340
35 -70 71 -105 148 -140 45 -21 64 -24 120 -20 138 10 233 82 271 207 63 201
-111 402 -320 370z"/>
<path d="M7675 6310 c-73 -7 -109 -25 -163 -83 -95 -104 -91 -248 10 -354 116
-121 337 -81 414 75 14 26 19 59 19 112 0 66 -4 81 -30 124 -60 96 -139 136
-250 126z"/>
<path d="M6953 6229 c-46 -14 -98 -69 -117 -125 -20 -59 -20 -79 0 -137 46
-136 226 -170 330 -62 87 90 73 224 -32 298 -45 32 -126 43 -181 26z"/>
<path d="M5507 6049 c7 -7 15 -10 18 -7 3 3 -2 9 -12 12 -14 6 -15 5 -6 -5z"/>
<path d="M5449 6033 c-13 -17 -13 -17 6 -3 11 8 22 16 24 17 2 2 0 3 -6 3 -6
0 -17 -8 -24 -17z"/>
<path d="M5581 6048 c2 -2 18 -14 34 -28 l30 -25 -24 28 c-14 15 -29 27 -34
27 -6 0 -8 -1 -6 -2z"/>
<path d="M4629 6030 c-26 -15 -41 -62 -30 -93 30 -78 134 -67 148 16 5 30 1
40 -22 61 -29 27 -67 33 -96 16z"/>
<path d="M2954 6009 c-19 -22 -19 -22 4 -8 12 8 22 17 22 21 0 12 -6 9 -26
-13z"/>
<path d="M2993 5995 c0 -8 4 -15 9 -15 4 0 8 4 8 9 0 6 -4 12 -8 15 -5 3 -9
-1 -9 -9z"/>
<path d="M2910 5975 c-11 -13 -10 -14 4 -9 9 3 16 10 16 15 0 13 -6 11 -20 -6z"/>
<path d="M2350 5968 c0 -6 3 -8 6 -5 4 3 16 2 28 -4 20 -10 20 -10 2 5 -24 19
-36 20 -36 4z"/>
<path d="M5651 5944 c0 -11 3 -14 6 -6 3 7 2 16 -1 19 -3 4 -6 -2 -5 -13z"/>
<path d="M3040 5948 c0 -3 16 -25 35 -48 19 -23 35 -38 35 -33 -1 10 -70 91
-70 81z"/>
<path d="M3650 5940 c0 -5 5 -10 10 -10 6 0 10 5 10 10 0 6 -4 10 -10 10 -5 0
-10 -4 -10 -10z"/>
<path d="M3598 5933 c7 -3 16 -2 19 1 4 3 -2 6 -13 5 -11 0 -14 -3 -6 -6z"/>
<path d="M2322 5897 c-17 -47 -14 -59 4 -18 8 19 13 39 12 43 -2 5 -9 -6 -16
-25z"/>
<path d="M2435 5920 c3 -5 13 -10 21 -10 8 0 12 5 9 10 -3 6 -13 10 -21 10 -8
0 -12 -4 -9 -10z"/>
<path d="M2820 5910 c-6 -11 -9 -20 -8 -20 2 0 11 9 21 20 9 11 13 20 7 20 -5
0 -14 -9 -20 -20z"/>
<path d="M3533 5913 c-10 -10 -14 -15 -8 -11 6 4 22 12 36 17 15 6 18 10 8 10
-9 1 -25 -7 -36 -16z"/>
<path d="M5640 5910 c0 -5 5 -10 11 -10 5 0 7 5 4 10 -3 6 -8 10 -11 10 -2 0
-4 -4 -4 -10z"/>
<path d="M2508 5893 c7 -3 16 -2 19 1 4 3 -2 6 -13 5 -11 0 -14 -3 -6 -6z"/>
<path d="M5611 5854 c-20 -21 -25 -32 -14 -25 17 8 60 61 51 61 -2 0 -18 -16
-37 -36z"/>
<path d="M2942 5860 c0 -14 2 -19 5 -12 2 6 2 18 0 25 -3 6 -5 1 -5 -13z"/>
<path d="M5470 5830 c0 -5 5 -10 11 -10 5 0 7 5 4 10 -3 6 -8 10 -11 10 -2 0
-4 -4 -4 -10z"/>
<path d="M2296 5813 c-6 -14 -5 -15 5 -6 7 7 10 15 7 18 -3 3 -9 -2 -12 -12z"/>
<path d="M3787 5813 c-2 -5 0 -21 4 -38 7 -29 7 -29 8 8 1 35 -3 46 -12 30z"/>
<path d="M6835 5796 c-109 -51 -185 -185 -171 -304 14 -122 79 -213 192 -268
69 -35 81 -37 162 -37 112 1 179 26 254 93 136 122 146 311 23 448 -52 58
-134 99 -164 83 -48 -26 -130 -24 -231 4 -8 3 -37 -6 -65 -19z"/>
<path d="M5430 5786 c0 -2 7 -7 16 -10 8 -3 12 -2 9 4 -6 10 -25 14 -25 6z"/>
<path d="M5589 5767 c-12 -16 -27 -21 -58 -21 -22 1 -38 -2 -36 -7 9 -14 78
-1 98 20 12 11 19 22 16 25 -2 2 -11 -6 -20 -17z"/>
<path d="M3466 5763 c-6 -14 -5 -15 5 -6 7 7 10 15 7 18 -3 3 -9 -2 -12 -12z"/>
<path d="M5349 5723 l-24 -28 28 24 c15 14 27 26 27 28 0 8 -8 1 -31 -24z"/>
<path d="M3470 5711 c0 -6 5 -13 10 -16 6 -3 10 1 10 9 0 9 -4 16 -10 16 -5 0
-10 -4 -10 -9z"/>
<path d="M4780 5700 c0 -21 14 -27 24 -11 4 5 0 12 -6 14 -8 4 -7 6 4 6 9 1
20 -3 23 -9 3 -5 11 -10 18 -10 18 0 -26 29 -45 30 -11 0 -18 -7 -18 -20z"/>
<path d="M4366 5695 c-25 -25 -29 -54 -12 -80 32 -48 106 -22 106 37 0 48 -61
76 -94 43z m25 -4 c-9 -6 -10 -11 -2 -15 16 -11 13 -26 -5 -26 -12 0 -15 -6
-11 -21 4 -16 3 -18 -9 -8 -8 6 -14 17 -14 23 0 18 30 56 43 56 8 0 8 -3 -2
-9z"/>
<path d="M5310 5671 c-12 -24 -13 -34 -1 -27 9 6 22 46 15 46 -2 0 -8 -9 -14
-19z"/>
<path d="M3749 5653 l-24 -28 28 24 c25 23 32 31 24 31 -2 0 -14 -12 -28 -27z"/>
<path d="M5741 5650 c14 -31 19 -36 19 -24 0 6 -7 19 -16 30 -14 18 -14 18 -3
-6z"/>
<path d="M3510 5651 c0 -5 5 -13 10 -16 6 -3 10 -2 10 4 0 5 -4 13 -10 16 -5
3 -10 2 -10 -4z"/>
<path d="M4845 5650 c-3 -5 -1 -10 4 -10 6 0 11 5 11 10 0 6 -2 10 -4 10 -3 0
-8 -4 -11 -10z"/>
<path d="M4711 5633 c-1 -12 4 -25 11 -29 16 -10 58 -12 52 -2 -3 4 0 8 6 8 6
0 8 -10 4 -26 -6 -24 -5 -26 17 -19 26 7 59 40 59 58 0 6 -7 1 -16 -11 -8 -12
-21 -22 -28 -22 -14 0 -29 27 -22 38 2 4 -8 8 -22 8 -15 1 -21 -1 -14 -3 21
-8 13 -24 -10 -21 -13 2 -26 12 -30 23 -6 19 -6 19 -7 -2z"/>
<path d="M2618 5633 c7 -3 16 -2 19 1 4 3 -2 6 -13 5 -11 0 -14 -3 -6 -6z"/>
<path d="M2875 5630 c3 -5 8 -10 11 -10 2 0 4 5 4 10 0 6 -5 10 -11 10 -5 0
-7 -4 -4 -10z"/>
<path d="M1840 5576 c-101 -32 -174 -95 -221 -190 -25 -54 -28 -68 -26 -145 4
-107 35 -180 105 -242 142 -126 342 -113 465 31 43 51 63 91 79 159 22 99 -24
234 -105 308 -81 73 -208 107 -297 79z m175 -174 c104 -73 114 -214 21 -288
-47 -38 -99 -53 -153 -43 -132 25 -194 172 -118 280 63 89 166 110 250 51z"/>
<path d="M3745 5570 c-16 -7 -17 -9 -3 -9 9 -1 20 4 23 9 7 11 7 11 -20 0z"/>
<path d="M5771 5564 c0 -11 3 -14 6 -6 3 7 2 16 -1 19 -3 4 -6 -2 -5 -13z"/>
<path d="M3460 5553 c-14 -9 -38 -30 -53 -45 l-29 -28 124 2 c68 1 99 3 71 5
-38 3 -53 8 -53 19 0 7 -4 14 -10 14 -5 0 -9 -5 -7 -12 1 -6 -6 -14 -16 -16
-13 -3 -17 1 -15 15 2 10 -2 17 -9 16 -19 -4 -16 3 9 27 27 24 21 26 -12 3z
m-10 -53 c0 -5 -5 -10 -11 -10 -5 0 -7 5 -4 10 3 6 8 10 11 10 2 0 4 -4 4 -10z"/>
<path d="M3780 5560 c0 -6 7 -10 15 -10 8 0 15 2 15 4 0 2 -7 6 -15 10 -8 3
-15 1 -15 -4z"/>
<path d="M3808 5528 c9 -9 15 -9 24 0 9 9 7 12 -12 12 -19 0 -21 -3 -12 -12z"/>
<path d="M5765 5520 c-3 -5 -1 -10 4 -10 6 0 11 5 11 10 0 6 -2 10 -4 10 -3 0
-8 -4 -11 -10z"/>
<path d="M3834 5508 c-4 -6 -3 -8 4 -4 6 3 13 2 16 -3 4 -5 -8 -12 -26 -14
-25 -3 -21 -4 16 -5 l49 -2 -23 20 c-27 23 -27 23 -36 8z"/>
<path d="M5428 5513 c12 -2 30 -2 40 0 9 3 -1 5 -23 4 -22 0 -30 -2 -17 -4z"/>
<path d="M3668 5483 c17 -2 47 -2 65 0 17 2 3 4 -33 4 -36 0 -50 -2 -32 -4z"/>
<path d="M7499 5303 c-12 -25 -42 -70 -66 -99 l-43 -53 229 4 230 5 -5 -77
c-3 -43 -10 -107 -15 -143 -6 -36 -12 -82 -14 -103 -2 -21 -7 -47 -10 -58 -4
-10 -4 -19 -1 -19 4 0 217 119 224 125 4 4 31 256 29 270 -1 5 25 11 59 13 54
3 62 6 77 32 10 16 39 39 67 52 46 21 49 25 50 61 l0 37 -394 0 -394 0 -23
-47z"/>
<path d="M7292 5080 c-74 -38 -78 -47 -7 -16 61 28 71 34 64 39 -2 2 -28 -8
-57 -23z"/>
<path d="M6806 4938 c-7 -119 -43 -456 -50 -467 -2 -3 -9 -42 -15 -86 -29
-215 -94 -490 -162 -694 -27 -80 -52 -148 -56 -151 -7 -6 -115 -24 -277 -46
l-49 -7 7 29 c11 53 25 129 31 171 l6 42 -94 -3 c-90 -2 -122 -9 -113 -25 4
-6 -2 -38 -21 -116 -2 -11 -6 -27 -7 -35 -14 -88 -14 -88 -74 -95 -142 -16
-287 -21 -302 -11 -13 10 -13 9 -1 -7 19 -24 262 -190 278 -190 7 0 13 -5 13
-11 1 -6 40 -37 88 -68 101 -66 97 -67 132 50 l24 80 120 12 c66 6 124 14 128
16 5 3 8 0 8 -6 0 -16 -138 -287 -155 -303 -11 -12 -2 -22 61 -65 40 -29 78
-52 84 -52 9 0 80 103 80 117 0 3 6 14 13 22 7 9 46 86 86 171 41 85 75 156
76 158 1 1 38 9 81 16 43 8 109 21 145 30 37 8 78 17 90 20 13 2 45 10 71 16
26 7 54 10 62 7 8 -3 16 -2 18 2 4 11 208 61 208 51 0 -7 -105 -144 -163 -212
-12 -16 -34 -29 -47 -29 -14 -1 7 -5 46 -9 46 -4 90 -15 125 -33 29 -14 54
-25 54 -24 1 1 27 34 58 73 30 39 80 109 110 155 54 83 217 377 217 392 0 13
-34 8 -90 -14 -30 -11 -68 -25 -85 -29 -100 -29 -445 -118 -476 -123 -14 -3
-82 -19 -150 -36 -68 -16 -140 -33 -160 -36 l-35 -7 57 174 c32 96 60 187 63
204 3 16 10 44 16 63 5 19 7 38 4 42 -2 5 2 32 10 61 8 29 17 69 19 89 2 19 9
51 15 70 14 43 41 222 48 314 2 39 9 106 14 150 6 44 10 119 10 166 0 61 4 89
13 92 6 2 -6 7 -28 11 -94 16 -141 25 -156 31 -14 5 -17 -9 -23 -107z"/>
<path d="M4684 5003 c-28 -30 -29 -41 -10 -87 33 -78 154 -36 132 46 -10 38
-21 49 -61 58 -33 7 -40 5 -61 -17z"/>
<path d="M7155 5020 c-8 -13 5 -13 25 0 13 8 13 10 -2 10 -9 0 -20 -4 -23 -10z"/>
<path d="M5432 4998 c-7 -7 -12 -16 -12 -22 0 -5 6 -3 13 6 6 9 21 18 32 21
20 5 20 5 0 6 -12 0 -26 -4 -33 -11z"/>
<path d="M5497 4973 c4 -25 1 -33 -16 -43 -12 -6 -27 -8 -34 -4 -9 5 -9 3 1
-7 9 -10 17 -11 29 -3 29 18 38 40 25 66 -10 21 -10 21 -5 -9z"/>
<path d="M3718 4953 c12 -2 30 -2 40 0 9 3 -1 5 -23 4 -22 0 -30 -2 -17 -4z"/>
<path d="M5421 4944 c0 -11 3 -14 6 -6 3 7 2 16 -1 19 -3 4 -6 -2 -5 -13z"/>
<path d="M2996 4935 c-203 -72 -161 -382 55 -411 92 -12 198 60 225 154 49
168 -113 317 -280 257z"/>
<path d="M3788 4943 c7 -3 16 -2 19 1 4 3 -2 6 -13 5 -11 0 -14 -3 -6 -6z"/>
<path d="M3800 4920 c0 -5 5 -10 11 -10 5 0 7 5 4 10 -3 6 -8 10 -11 10 -2 0
-4 -4 -4 -10z"/>
<path d="M2261 4889 c-25 -16 -47 -31 -49 -33 -2 -3 2 -39 8 -81 35 -233 89
-441 164 -640 l34 -90 108 -37 c60 -21 115 -37 123 -38 16 0 13 15 -27 128
-16 45 -26 82 -23 82 3 0 1 4 -6 8 -25 16 -110 388 -128 564 l-6 56 -72 54
c-40 29 -74 54 -77 55 -3 2 -25 -11 -49 -28z"/>
<path d="M3850 4906 c0 -2 7 -9 15 -16 13 -11 14 -10 9 4 -5 14 -24 23 -24 12z"/>
<path d="M3870 4860 c0 -5 5 -10 11 -10 6 0 8 -9 4 -22 -5 -19 -4 -20 5 -6 5
9 7 23 4 32 -7 18 -24 22 -24 6z"/>
<path d="M3572 4805 c0 -16 2 -22 5 -12 2 9 2 23 0 30 -3 6 -5 -1 -5 -18z"/>
<path d="M3899 4793 c-1 -16 -1 -32 0 -37 1 -4 -4 -14 -10 -22 -7 -8 -9 -18
-5 -21 12 -13 26 21 26 65 0 46 -9 59 -11 15z"/>
<path d="M3567 4763 c-5 -9 9 -53 17 -53 5 0 -3 52 -9 58 -1 2 -5 0 -8 -5z"/>
<path d="M7755 4750 c-3 -6 1 -7 9 -4 18 7 21 14 7 14 -6 0 -13 -4 -16 -10z"/>
<path d="M5569 4741 c-91 -18 -159 -93 -167 -185 -11 -132 76 -225 209 -226
107 0 191 72 208 177 13 87 -21 157 -100 205 -50 30 -97 39 -150 29z"/>
<path d="M7720 4729 c0 -5 5 -7 10 -4 6 3 10 8 10 11 0 2 -4 4 -10 4 -5 0 -10
-5 -10 -11z"/>
<path d="M7673 4708 c-13 -6 -23 -15 -23 -20 0 -5 11 -1 25 8 37 24 35 30 -2
12z"/>
<path d="M2610 4671 c0 -5 7 -12 16 -15 14 -5 15 -4 4 9 -14 17 -20 19 -20 6z"/>
<path d="M3849 4663 c-13 -16 -12 -17 4 -4 16 13 21 21 13 21 -2 0 -10 -8 -17
-17z"/>
<path d="M7897 4618 c-122 -68 -114 -58 -167 -228 -18 -58 -59 -174 -92 -259
-32 -84 -57 -156 -54 -159 7 -6 137 32 201 59 44 18 41 11 117 224 34 95 67
214 106 383 5 23 7 42 3 41 -3 0 -55 -28 -114 -61z"/>
<path d="M4435 4650 c-82 -45 -123 -105 -129 -188 -6 -90 49 -187 128 -223 78
-35 196 -19 254 34 35 32 72 118 72 166 0 48 -20 101 -56 148 -56 73 -191 105
-269 63z"/>
<path d="M3805 4640 c-3 -5 -16 -11 -28 -11 -17 -1 -18 -2 -5 -6 10 -2 28 3
40 11 12 9 17 16 11 16 -7 0 -15 -4 -18 -10z"/>
<path d="M7485 4598 c-27 -16 -39 -26 -25 -22 26 7 102 55 85 53 -6 -1 -32
-14 -60 -31z"/>
<path d="M3718 4613 c7 -3 16 -2 19 1 4 3 -2 6 -13 5 -11 0 -14 -3 -6 -6z"/>
<path d="M7363 4535 c0 -8 4 -12 9 -9 5 3 6 10 3 15 -9 13 -12 11 -12 -6z"/>
<path d="M7320 4513 c-16 -7 -45 -33 -36 -33 3 0 20 9 38 20 31 19 30 25 -2
13z"/>
<path d="M7245 4470 c-3 -6 1 -7 9 -4 18 7 21 14 7 14 -6 0 -13 -4 -16 -10z"/>
<path d="M7636 4465 c-11 -8 -15 -15 -9 -15 6 0 16 7 23 15 16 19 11 19 -14 0z"/>
<path d="M7215 4460 c-3 -5 -1 -10 4 -10 6 0 11 5 11 10 0 6 -2 10 -4 10 -3 0
-8 -4 -11 -10z"/>
<path d="M3223 4403 c9 -2 25 -2 35 0 9 3 1 5 -18 5 -19 0 -27 -2 -17 -5z"/>
<path d="M7506 4395 c-11 -8 -17 -17 -14 -20 2 -3 13 4 23 15 21 23 18 25 -9
5z"/>
<path d="M3397 4389 c7 -7 15 -10 18 -7 3 3 -2 9 -12 12 -14 6 -15 5 -6 -5z"/>
<path d="M7100 4390 c-9 -6 -10 -10 -3 -10 6 0 15 5 18 10 8 12 4 12 -15 0z"/>
<path d="M3443 4374 c3 -3 23 -8 44 -10 31 -3 34 -2 13 5 -30 11 -66 14 -57 5z"/>
<path d="M2710 4356 c0 -8 4 -17 9 -20 5 -4 7 3 4 14 -6 23 -13 26 -13 6z"/>
<path d="M3535 4350 c3 -5 8 -10 11 -10 2 0 4 5 4 10 0 6 -5 10 -11 10 -5 0
-7 -4 -4 -10z"/>
<path d="M3570 4340 c0 -5 5 -10 11 -10 5 0 7 5 4 10 -3 6 -8 10 -11 10 -2 0
-4 -4 -4 -10z"/>
<path d="M7384 4324 c-18 -14 -18 -15 4 -4 12 6 22 13 22 15 0 8 -5 6 -26 -11z"/>
<path d="M5413 4294 c-45 -22 -116 -101 -147 -163 -15 -28 -32 -51 -39 -51 -8
0 -9 -2 -1 -8 6 -4 13 -41 16 -83 4 -68 9 -83 44 -135 46 -69 103 -115 179
-143 102 -38 264 -21 350 37 22 14 43 25 48 24 4 -1 7 3 7 9 0 6 16 29 35 51
69 82 87 214 41 305 -32 64 -78 118 -128 149 -46 29 -58 30 -126 4 -29 -11
-68 -20 -87 -20 -19 0 -58 9 -87 20 -63 24 -64 24 -105 4z"/>
<path d="M2651 4255 c-42 -46 -48 -59 -31 -70 5 -3 7 0 4 8 -3 8 8 27 23 44
40 43 56 63 50 63 -2 0 -23 -20 -46 -45z"/>
<path d="M7300 4280 c-9 -6 -10 -10 -3 -10 6 0 15 5 18 10 8 12 4 12 -15 0z"/>
<path d="M3708 4273 c7 -3 16 -2 19 1 4 3 -2 6 -13 5 -11 0 -14 -3 -6 -6z"/>
<path d="M7180 4215 c-14 -8 -20 -14 -15 -14 6 0 21 6 35 14 14 8 21 14 15 14
-5 0 -21 -6 -35 -14z"/>
<path d="M3869 4153 c-13 -16 -12 -17 4 -4 16 13 21 21 13 21 -2 0 -10 -8 -17
-17z"/>
<path d="M7045 4140 c-16 -11 -25 -20 -18 -20 6 0 15 5 18 11 4 6 13 8 21 5 8
-3 14 1 14 9 0 19 1 19 -35 -5z"/>
<path d="M3795 4110 c-3 -6 1 -7 9 -4 18 7 21 14 7 14 -6 0 -13 -4 -16 -10z"/>
<path d="M6978 4104 c-38 -20 -36 -28 2 -9 17 9 30 18 30 20 0 7 -1 6 -32 -11z"/>
<path d="M3398 4093 c-27 -2 -48 -9 -48 -14 0 -6 11 -60 26 -121 14 -61 23
-117 20 -124 -3 -8 -2 -14 2 -14 4 0 12 -12 19 -27 23 -56 73 -206 69 -210 -7
-7 -533 119 -696 167 -58 18 -118 35 -135 40 -16 4 -56 15 -88 25 -32 9 -61
15 -63 12 -9 -8 21 -69 106 -218 259 -449 539 -750 955 -1026 132 -87 352
-200 520 -266 246 -97 430 -142 780 -191 380 -53 945 40 1397 230 134 56 348
163 348 173 0 11 -163 126 -174 123 -6 -2 -40 -18 -76 -36 -36 -18 -92 -43
-125 -56 -33 -13 -64 -26 -70 -30 -5 -4 -19 -10 -29 -14 -24 -8 -24 -8 98 118
53 55 93 103 89 106 -36 30 -152 110 -159 110 -5 -1 -21 -17 -36 -37 -62 -82
-189 -209 -273 -276 -84 -67 -88 -68 -55 -28 61 74 252 396 249 420 -1 13
-152 112 -160 104 -4 -4 -31 -53 -60 -108 -124 -236 -248 -388 -416 -512 -72
-54 -180 -109 -192 -98 -3 4 -5 201 -3 438 l3 432 172 8 c95 4 193 6 219 5 25
-2 44 0 42 4 -2 3 -69 49 -148 102 l-144 96 -76 0 -76 0 0 48 c0 55 -3 58
-117 140 l-73 52 0 -73 c0 -41 -3 -95 -6 -121 l-7 -46 -101 0 c-118 0 -378 20
-570 44 l-90 11 -12 41 c-7 23 -15 63 -19 90 -4 27 -11 67 -14 89 l-6 40 -102
3 c-57 1 -103 -1 -103 -5 0 -13 37 -189 45 -212 6 -19 3 -21 -17 -17 -13 3
-84 15 -158 26 -74 12 -140 27 -147 33 -22 23 -113 319 -138 451 -8 44 -20 85
-26 93 -11 13 -45 14 -151 6z m-388 -601 c195 -49 457 -107 520 -116 l45 -7
50 -111 c71 -161 207 -398 276 -482 5 -6 38 -47 73 -91 35 -44 84 -101 110
-127 25 -27 43 -48 41 -48 -11 0 -273 136 -325 169 -78 48 -224 144 -230 151
-3 3 -49 39 -104 80 -161 122 -406 375 -538 556 -42 57 -46 69 -20 56 9 -5 55
-19 102 -30z m963 -191 l98 -17 43 -130 c40 -122 116 -307 158 -381 9 -18 34
-63 54 -100 21 -37 60 -97 88 -133 l50 -65 -44 34 c-78 60 -252 242 -331 346
-116 153 -279 425 -279 466 0 7 11 8 33 3 17 -4 76 -14 130 -23z m412 -61 c33
-5 94 -12 135 -15 41 -4 97 -11 125 -15 27 -4 54 -6 58 -3 4 3 16 2 25 -2 16
-7 51 -9 219 -13 l72 -2 1 -434 c0 -239 -4 -437 -9 -440 -14 -9 -178 79 -233
126 -149 128 -220 218 -321 408 -55 105 -143 315 -154 371 -6 33 -6 33 82 19z"/>
<path d="M4765 3170 c-3 -5 -1 -10 4 -10 6 0 11 5 11 10 0 6 -2 10 -4 10 -3 0
-8 -4 -11 -10z"/>
<path d="M3685 4070 c19 -8 73 -14 64 -6 -2 2 -22 6 -44 9 -28 5 -34 4 -20 -3z"/>
<path d="M5188 4053 c7 -3 16 -2 19 1 4 3 -2 6 -13 5 -11 0 -14 -3 -6 -6z"/>
<path d="M6127 4039 c7 -7 15 -10 18 -7 3 3 -2 9 -12 12 -14 6 -15 5 -6 -5z"/>
<path d="M5125 4020 c-3 -5 -1 -10 4 -10 6 0 11 5 11 10 0 6 -2 10 -4 10 -3 0
-8 -4 -11 -10z"/>
<path d="M7090 4006 c7 -7 13 -7 20 0 6 6 3 10 -10 10 -13 0 -16 -4 -10 -10z"/>
<path d="M5054 3968 l-19 -23 23 19 c12 11 22 21 22 23 0 8 -8 2 -26 -19z"/>
<path d="M7516 3961 c-3 -4 6 -6 19 -3 14 2 25 6 25 8 0 8 -39 4 -44 -5z"/>
<path d="M7460 3950 c-13 -8 -12 -10 3 -10 9 0 17 5 17 10 0 12 -1 12 -20 0z"/>
<path d="M7348 3921 c-43 -12 -68 -15 -68 -8 0 6 -3 8 -6 4 -3 -3 -3 -10 0
-15 6 -10 140 19 154 32 8 9 -7 6 -80 -13z"/>
<path d="M2870 3920 c8 -5 20 -10 25 -10 6 0 3 5 -5 10 -8 5 -19 10 -25 10 -5
0 -3 -5 5 -10z"/>
<path d="M7185 3880 c-4 -7 3 -8 22 -4 38 9 42 14 10 14 -14 0 -29 -5 -32 -10z"/>
<path d="M3147 3859 c7 -7 15 -10 18 -7 3 3 -2 9 -12 12 -14 6 -15 5 -6 -5z"/>
<path d="M7095 3860 c-13 -6 -15 -9 -5 -9 8 0 22 4 30 9 18 12 2 12 -25 0z"/>
<path d="M7040 3850 c0 -5 5 -10 11 -10 5 0 7 5 4 10 -3 6 -8 10 -11 10 -2 0
-4 -4 -4 -10z"/>
<path d="M5045 3830 c10 -11 20 -20 23 -20 3 0 -3 9 -13 20 -10 11 -20 20 -23
20 -3 0 3 -9 13 -20z"/>
<path d="M3248 3833 c6 -2 18 -2 25 0 6 3 1 5 -13 5 -14 0 -19 -2 -12 -5z"/>
<path d="M6998 3833 c7 -3 16 -2 19 1 4 3 -2 6 -13 5 -11 0 -14 -3 -6 -6z"/>
<path d="M3298 3823 c7 -3 16 -2 19 1 4 3 -2 6 -13 5 -11 0 -14 -3 -6 -6z"/>
<path d="M6943 3823 c9 -2 23 -2 30 0 6 3 -1 5 -18 5 -16 0 -22 -2 -12 -5z"/>
<path d="M6470 3816 c0 -2 14 -14 30 -26 17 -12 30 -19 30 -16 0 2 -13 14 -30
26 -16 12 -30 19 -30 16z"/>
<path d="M6873 3813 c9 -2 23 -2 30 0 6 3 -1 5 -18 5 -16 0 -22 -2 -12 -5z"/>
<path d="M5101 3796 c2 -1 20 -13 39 -25 27 -17 30 -18 13 -3 -12 11 -20 21
-18 24 2 2 -5 5 -17 5 -11 1 -19 1 -17 -1z"/>
<path d="M6475 3760 c-16 -7 -17 -9 -3 -9 9 -1 20 4 23 9 7 11 7 11 -20 0z"/>
<path d="M6338 3733 c6 -2 18 -2 25 0 6 3 1 5 -13 5 -14 0 -19 -2 -12 -5z"/>
<path d="M5511 3516 c2 -2 15 -9 29 -15 24 -11 24 -11 6 3 -16 13 -49 24 -35
12z"/>
<path d="M7009 3183 c-13 -16 -12 -17 4 -4 16 13 21 21 13 21 -2 0 -10 -8 -17
-17z"/>
<path d="M6955 3066 c-15 -19 -63 -65 -107 -103 -45 -37 -88 -75 -97 -83 -92
-84 -149 -105 -195 -69 -13 10 -27 19 -31 19 -4 0 17 -19 47 -42 78 -63 192
-148 198 -148 3 0 30 18 60 40 30 21 93 65 140 96 47 31 86 58 88 59 1 1 -4
15 -13 31 -18 35 -20 123 -3 159 10 22 9 28 -8 40 -46 36 -51 36 -79 1z m-335
-286 c0 -5 -2 -10 -4 -10 -3 0 -8 5 -11 10 -3 6 -1 10 4 10 6 0 11 -4 11 -10z"/>
</g>
</svg>
