<?xml version="1.0" standalone="no"?>
<!DOCTYPE svg PUBLIC "-//W3C//DTD SVG 20010904//EN"
 "http://www.w3.org/TR/2001/REC-SVG-20010904/DTD/svg10.dtd">
<svg version="1.0" xmlns="http://www.w3.org/2000/svg"
 width="1024.000000pt" height="1024.000000pt" viewBox="0 0 1024.000000 1024.000000"
 preserveAspectRatio="xMidYMid meet">

<g transform="translate(0.000000,1024.000000) scale(0.100000,-0.100000)"
fill="#000000" stroke="none">
<path d="M3201 7775 c-195 -43 -342 -125 -471 -262 -82 -87 -139 -171 -179
-266 -52 -125 -63 -181 -68 -350 l-6 -158 296 3 296 3 38 -36 c53 -51 93 -69
155 -69 62 0 119 24 166 68 l34 32 719 1 720 1 227 -232 c125 -128 228 -236
230 -241 2 -4 -12 -32 -31 -61 -19 -30 -43 -80 -55 -113 l-20 -60 -1386 -3
-1386 -2 0 -1258 c0 -1371 -1 -1346 58 -1509 57 -161 184 -332 325 -439 81
-62 221 -128 327 -156 l85 -23 1795 0 1795 0 83 22 c97 26 245 95 317 147 167
121 301 314 367 528 l23 73 3 1789 c3 1963 5 1871 -57 2033 -98 253 -306 444
-571 525 l-75 23 -1845 2 c-1545 1 -1855 -1 -1909 -12z m1739 -525 l0 -280
-739 0 -739 0 -21 33 c-26 43 -89 77 -154 84 -70 7 -145 -24 -188 -78 l-31
-39 -154 0 -154 0 0 28 c0 41 24 121 54 183 81 164 254 298 432 333 55 11 239
14 882 15 l812 1 0 -280z m1253 3 c4 -87 7 -208 7 -269 l0 -111 -416 -7 c-229
-4 -418 -6 -420 -4 -9 9 -16 343 -9 441 l7 107 412 0 413 0 6 -157z m925 -115
l2 -268 -255 0 -255 0 0 270 0 270 253 -2 252 -3 3 -267z m272 -843 l0 -265
-309 0 -310 0 -15 53 c-9 28 -29 78 -44 109 -16 32 -26 61 -23 65 3 5 75 74
158 156 l153 147 195 0 195 0 0 -265z m-1254 8 c157 -53 260 -187 280 -363 13
-114 -30 -231 -117 -319 -64 -63 -130 -98 -216 -112 -228 -38 -436 113 -476
344 -33 194 90 392 280 451 66 20 188 20 249 -1z m1252 -1368 l2 -865 -131 0
-132 0 -35 40 c-92 109 -235 109 -340 1 l-40 -41 -706 0 -706 0 -6 28 c-25
116 -39 157 -76 231 -29 58 -64 107 -117 163 l-75 80 119 114 c66 63 216 211
335 329 l216 215 72 -25 c236 -80 504 -39 696 105 140 105 249 267 286 425 7
28 13 55 15 60 1 6 112 9 311 8 l309 -2 3 -866z m-2439 526 c1 -116 -1 -237
-5 -271 l-7 -60 -468 0 -469 0 0 270 0 270 468 2 c257 2 470 2 473 1 4 -2 7
-97 8 -212z m-1357 -61 l-3 -270 -329 0 -330 0 0 270 0 270 333 0 332 0 -3
-270z m-44 -818 l304 -297 -21 -77 c-80 -308 15 -603 257 -798 127 -101 279
-152 457 -152 134 0 232 23 354 84 68 34 103 60 176 133 102 102 148 173 187
290 l27 80 712 3 712 2 43 -44 c39 -41 113 -76 159 -76 44 0 123 36 165 76
l47 44 133 0 133 0 -5 -197 c-5 -183 -7 -204 -33 -281 -46 -136 -148 -271
-265 -352 -81 -55 -126 -75 -219 -99 -85 -21 -85 -21 -1793 -21 -1919 0 -1773
-6 -1947 76 -81 38 -107 57 -176 127 -66 67 -91 102 -129 178 -77 155 -76 143
-76 917 l0 682 248 0 247 -1 303 -297z m1177 -217 c33 -16 83 -52 111 -79 196
-197 146 -522 -101 -655 -87 -47 -238 -52 -342 -13 -211 80 -315 348 -215 553
33 70 56 97 117 145 87 68 142 84 275 80 81 -2 104 -6 155 -31z"/>
<path d="M27 103 c-25 -4 -27 -8 -27 -54 0 -48 1 -49 30 -49 30 0 30 1 30 55
0 30 -1 54 -2 54 -2 -1 -15 -4 -31 -6z"/>
</g>
</svg>
