<?xml version="1.0" standalone="no"?>
<!DOCTYPE svg PUBLIC "-//W3C//DTD SVG 20010904//EN"
 "http://www.w3.org/TR/2001/REC-SVG-20010904/DTD/svg10.dtd">
<svg version="1.0" xmlns="http://www.w3.org/2000/svg"
 width="1024.000000pt" height="1024.000000pt" viewBox="0 0 1024.000000 1024.000000"
 preserveAspectRatio="xMidYMid meet">

<g transform="translate(0.000000,1024.000000) scale(0.100000,-0.100000)"
fill="#000000" stroke="none">
<path d="M2700 8265 c-384 -83 -686 -346 -820 -714 -64 -174 -60 -46 -60
-2386 0 -1396 4 -2152 10 -2193 35 -212 149 -431 314 -597 116 -118 304 -229
471 -277 l80 -23 2370 -3 c2621 -3 2453 -6 2635 62 235 88 404 231 542 456 26
41 56 99 67 128 12 28 30 74 40 101 53 132 52 41 49 2381 l-3 2165 -27 90
c-40 135 -83 229 -153 335 -146 220 -351 372 -620 457 l-90 28 -2370 2 c-1996
1 -2380 -1 -2435 -12z m531 -625 c92 -17 235 -95 309 -170 113 -115 168 -232
179 -385 l6 -90 1360 -3 1360 -2 33 72 c83 185 252 330 433 373 81 19 236 19
315 0 227 -53 426 -252 479 -477 21 -90 19 -229 -5 -322 -55 -217 -240 -411
-440 -462 l-45 -11 -5 -669 c-6 -747 -1 -697 -78 -772 -77 -75 -32 -72 -837
-72 l-720 -1 -37 -77 c-41 -84 -69 -119 -147 -180 -137 -109 -378 -114 -527
-12 -57 40 -136 130 -163 188 -12 26 -26 54 -30 62 -7 13 -89 15 -630 18 -420
1 -621 -1 -621 -8 0 -6 11 -28 25 -50 53 -85 72 -259 39 -370 -19 -63 -79
-162 -126 -206 -41 -39 -120 -87 -170 -105 l-38 -13 0 -362 c0 -316 2 -365 16
-378 14 -14 96 -16 760 -16 l744 0 6 28 c20 82 105 194 191 251 68 45 160 71
254 71 177 0 318 -87 402 -246 20 -40 37 -79 37 -88 0 -14 43 -16 446 -16 494
0 494 0 534 -65 24 -39 26 -102 4 -134 -35 -50 -50 -51 -538 -51 l-455 0 -32
-60 c-89 -167 -280 -265 -464 -239 -153 21 -273 105 -345 241 l-31 57 -787 3
c-870 3 -817 -1 -896 68 -20 18 -47 52 -59 74 -21 40 -22 51 -25 451 l-3 410
-67 27 c-82 33 -170 109 -223 190 -53 82 -72 164 -67 281 3 84 8 103 40 168
43 87 123 172 200 214 29 16 68 40 85 54 l33 26 0 801 0 802 -84 41 c-143 71
-247 184 -302 326 -32 84 -44 253 -24 348 43 207 241 411 446 461 70 17 210
20 285 6z m4081 -4012 c59 -12 153 -72 196 -124 101 -121 125 -301 60 -442
-12 -26 -51 -76 -87 -112 -87 -86 -157 -114 -281 -114 -117 0 -192 28 -275
106 -167 155 -180 404 -30 567 112 120 243 157 417 119z"/>
<path d="M3231 7050 l-235 -5 -8 -30 c-10 -39 -1 -299 11 -303 28 -9 94 -67
118 -104 l28 -42 3 -833 2 -833 758 0 757 0 32 68 c48 102 160 202 262 234
l41 13 0 762 0 762 -687 3 -688 3 -46 27 c-70 41 -92 84 -97 196 -2 50 -7 91
-11 90 -3 -1 -111 -5 -240 -8z"/>
<path d="M5250 5978 l1 -763 66 -30 c87 -39 186 -136 227 -223 l30 -62 698 0
698 0 0 628 0 627 -51 12 c-67 16 -182 76 -244 126 -121 99 -213 246 -235 380
l-12 67 -589 0 -589 0 0 -762z"/>
</g>
</svg>
