<?xml version="1.0" standalone="no"?>
<!DOCTYPE svg PUBLIC "-//W3C//DTD SVG 20010904//EN"
 "http://www.w3.org/TR/2001/REC-SVG-20010904/DTD/svg10.dtd">
<svg version="1.0" xmlns="http://www.w3.org/2000/svg"
 width="1024.000000pt" height="1024.000000pt" viewBox="0 0 1024.000000 1024.000000"
 preserveAspectRatio="xMidYMid meet">

<g transform="translate(0.000000,1024.000000) scale(0.100000,-0.100000)"
fill="#000000" stroke="none">
<path d="M0 5120 l0 -5120 5120 0 5120 0 0 5120 0 5120 -5120 0 -5120 0 0
-5120z m7740 3779 c25 -75 101 -144 193 -173 29 -9 19 -21 -28 -34 -75 -20
-145 -97 -179 -197 -6 -15 -14 -5 -42 52 -38 80 -86 122 -159 143 -25 7 -45
16 -45 20 0 5 23 16 51 25 70 23 141 93 165 162 10 28 21 50 24 48 4 -2 13
-23 20 -46z m695 -444 c-70 -120 -170 -295 -222 -389 -53 -94 -132 -235 -175
-313 l-80 -143 20 -27 c36 -51 102 -193 132 -281 103 -309 73 -678 -81 -989
-24 -46 -46 -80 -52 -76 -5 3 -7 1 -4 -4 6 -10 -28 -64 -45 -71 -5 -2 -6 -7
-4 -11 3 -4 -6 -8 -20 -9 -20 -1 -24 3 -24 28 0 23 -4 30 -20 30 -11 0 -20 7
-20 15 0 8 -9 15 -20 15 -11 0 -20 -7 -20 -15 0 -21 -13 -19 -30 5 -14 20 -47
29 -35 10 3 -5 1 -10 -5 -10 -6 0 -10 6 -9 13 4 31 -1 40 -15 27 -12 -9 -15
-8 -13 8 0 11 6 18 13 15 7 -2 11 5 10 19 -1 13 16 57 37 98 51 97 95 234 109
335 20 150 -2 440 -39 498 -4 6 -8 14 -9 17 -8 43 -71 147 -93 155 -22 9 -54
-18 -210 -170 -420 -410 -425 -414 -453 -415 -27 0 -28 2 -28 49 l0 50 316
306 c208 201 332 314 363 330 61 30 72 45 78 100 5 41 3 47 -30 80 -30 30 -42
35 -82 35 -45 0 -50 -3 -120 -72 -77 -77 -172 -156 -127 -107 23 27 29 49 11
49 -5 0 -8 4 -5 9 3 5 0 14 -8 20 -11 9 -15 9 -19 -1 -2 -7 -5 4 -5 25 0 20
-7 48 -15 61 -15 23 -128 76 -174 81 -12 2 -39 9 -60 16 -54 18 -300 15 -389
-4 -150 -34 -218 -63 -374 -165 -19 -12 -44 -28 -55 -35 -11 -6 -43 -34 -73
-62 -160 -150 -279 -392 -299 -609 l-6 -68 -51 -24 c-55 -26 -124 -31 -159
-13 -12 6 -35 23 -50 37 -27 26 -28 29 -21 97 13 144 73 364 132 480 109 218
342 443 567 549 198 94 361 130 590 130 215 0 340 -29 544 -125 57 -27 108
-46 115 -42 6 3 63 45 126 93 63 47 165 121 225 163 61 42 216 155 345 251
129 96 236 173 238 172 1 -2 -54 -101 -123 -221z m-3235 158 c69 -28 120 -101
120 -173 0 -47 -30 -110 -67 -141 l-30 -25 186 -12 c102 -7 230 -21 284 -32
175 -34 397 -104 404 -125 1 -6 -16 -23 -38 -39 -188 -133 -376 -367 -471
-588 -46 -106 -92 -278 -109 -403 -19 -146 -6 -400 29 -585 81 -415 60 -755
-60 -995 -77 -152 -88 -165 -743 -804 -143 -140 -299 -293 -347 -340 -49 -47
-88 -82 -88 -79 0 4 7 14 16 22 8 9 11 16 5 16 -6 0 -11 4 -11 10 0 5 7 7 15
4 8 -3 22 1 30 10 15 15 15 16 0 16 -15 0 -16 7 -11 45 7 41 5 45 -13 45 -14
0 -21 6 -21 20 0 17 -7 20 -42 21 -24 1 -51 1 -60 0 -21 -3 -24 14 -5 23 10 5
10 7 0 12 -7 3 -13 12 -13 20 0 15 -12 19 -24 7 -4 -5 -11 -8 -14 -9 -21 -2
-42 -18 -42 -30 0 -7 -8 -18 -19 -23 -32 -18 -103 -80 -231 -205 -489 -473
-507 -487 -618 -485 -31 0 -51 3 -43 6 11 5 11 7 0 14 -11 6 -11 11 -1 21 14
14 16 48 2 48 -5 0 -10 9 -10 19 0 22 -17 31 -54 27 -15 -2 -26 2 -26 9 0 15
56 75 70 75 6 0 10 5 10 11 0 6 91 101 203 210 111 109 197 199 192 199 -6 0
-318 -305 -694 -678 l-684 -678 5 -67 6 -66 -328 -321 c-198 -193 -341 -325
-359 -331 -66 -23 -141 30 -141 99 0 41 8 49 468 487 138 131 256 251 263 266
11 29 6 59 -17 97 -12 18 -24 22 -62 22 -39 0 -53 -5 -73 -26 -13 -14 -135
-134 -271 -265 -241 -234 -247 -239 -288 -239 -73 0 -121 71 -89 131 5 11 136
145 290 297 l279 277 0 43 c0 73 -61 113 -123 81 -12 -6 -129 -118 -259 -247
-130 -130 -249 -242 -264 -250 -49 -25 -104 3 -124 64 -10 29 -9 40 7 69 21
39 812 811 838 818 4 1 22 -38 40 -88 47 -132 120 -291 151 -332 34 -45 114
-83 177 -83 121 0 226 107 215 220 -3 25 -30 105 -62 179 -185 435 -259 804
-259 1296 -1 289 9 373 77 658 51 210 148 493 217 630 11 21 15 37 9 37 -6 0
-9 4 -5 9 3 5 1 12 -4 15 -5 4 -8 -4 -7 -16 3 -21 -1 -23 -41 -19 -34 2 -43 7
-43 22 0 15 -7 19 -40 19 -33 0 -40 3 -40 20 0 13 -7 20 -20 20 -12 0 -20 7
-20 16 0 9 -10 25 -22 36 -23 20 -53 21 -53 1 0 -6 -3 -14 -7 -18 -4 -4 -5 9
-2 30 2 20 0 34 -5 31 -11 -7 -99 -187 -156 -321 -70 -164 -131 -342 -164
-480 -55 -231 -64 -259 -87 -282 -43 -43 -123 -25 -153 34 -30 59 93 526 214
808 227 532 600 1028 1045 1391 117 95 304 226 430 302 144 87 396 212 427
212 13 0 37 -7 52 -16 26 -15 32 -14 167 39 281 111 612 197 894 231 217 27
273 27 340 -1z m3450 -697 c0 -8 13 -47 30 -87 38 -96 101 -157 195 -190 36
-13 65 -27 65 -30 0 -4 -17 -10 -37 -14 -46 -8 -100 -36 -143 -72 -34 -28 -96
-144 -106 -200 -3 -18 -10 -33 -14 -33 -4 0 -15 27 -25 61 -38 124 -109 203
-213 238 -26 9 -48 20 -50 26 -2 5 14 14 35 20 57 17 115 50 145 82 34 36 85
133 94 178 6 34 24 49 24 21z m-1472 -85 c9 -5 37 -17 61 -27 47 -20 75 -52
65 -77 -10 -26 -38 -29 -104 -12 -34 9 -90 19 -126 22 -35 3 -69 12 -75 19
-16 20 -2 63 24 74 29 12 133 12 155 1z m-250 -27 c20 -43 2 -61 -74 -69 -188
-20 -388 -124 -518 -268 -38 -42 -74 -85 -80 -96 -6 -11 -27 -46 -46 -78 -19
-32 -44 -85 -56 -118 -21 -62 -51 -86 -88 -72 -63 24 80 312 229 462 144 144
392 261 561 264 56 1 62 -1 72 -25z m437 -284 c-3 -5 -12 -10 -18 -10 -7 0 -6
4 3 10 19 12 23 12 15 0z m-25 -24 c0 -2 -8 -10 -17 -17 -16 -13 -17 -12 -4 4
13 16 21 21 21 13z m934 -1407 c33 -15 52 -57 93 -203 77 -276 98 -471 90
-829 -4 -208 -10 -279 -32 -407 -38 -224 -126 -531 -211 -733 -220 -525 -632
-1018 -1121 -1346 -121 -80 -316 -191 -408 -231 -70 -31 -74 -34 -84 -76 -19
-76 -92 -139 -214 -186 -136 -52 -444 -132 -562 -146 -64 -7 -71 -6 -71 10 0
12 8 18 23 18 20 0 23 5 23 40 0 33 -3 40 -20 40 -17 0 -20 7 -20 40 0 33 -3
40 -20 40 -13 0 -20 7 -20 20 0 11 -4 20 -10 20 -5 0 -10 9 -10 20 0 13 -7 20
-20 20 -13 0 -20 7 -20 20 0 11 -4 20 -10 20 -5 0 -10 9 -10 20 0 12 -7 20
-17 21 -12 1 -9 4 7 8 14 4 -92 10 -235 13 -357 8 -480 29 -740 126 -137 51
-209 92 -162 92 8 0 24 12 38 26 13 14 59 58 102 97 l78 70 97 -26 c301 -83
604 -106 910 -71 411 47 745 154 1060 338 489 284 860 731 1058 1273 104 283
162 594 171 918 6 202 -2 316 -39 517 l-21 117 105 114 c57 62 113 127 123
144 9 16 29 37 44 46 32 20 25 19 55 6z m-424 -43 c0 -2 -8 -10 -17 -17 -16
-13 -17 -12 -4 4 13 16 21 21 21 13z m-1709 -378 c19 -6 68 -30 109 -54 41
-23 88 -46 103 -49 15 -4 27 -11 25 -15 -6 -15 -1424 -1379 -1624 -1562 -92
-84 -123 -100 -193 -101 -89 0 -150 42 -170 118 -12 49 -2 110 27 156 11 19
110 119 219 223 109 104 254 244 323 310 670 650 925 892 973 924 39 26 129
61 158 62 9 0 31 -5 50 -12z m1552 -40 c-30 -155 -79 -223 -361 -494 -130
-125 -298 -286 -372 -358 -176 -171 -734 -711 -875 -847 -147 -142 -222 -210
-254 -232 -37 -24 -118 -53 -171 -61 l-45 -6 25 17 c139 99 194 224 156 356
-44 152 -238 233 -368 154 -31 -19 -265 -242 -993 -948 -77 -74 -260 -252
-408 -394 -147 -143 -275 -270 -284 -284 -21 -32 -20 -93 1 -126 37 -56 246
-191 397 -257 134 -58 379 -142 484 -166 301 -68 481 -86 800 -79 l250 4 32
-32 c38 -38 44 -89 17 -131 -29 -43 -61 -52 -244 -64 -335 -22 -680 17 -1021
115 -181 52 -299 100 -483 194 -94 47 -173 87 -177 89 -8 4 -6 6 -180 -165
-127 -125 -150 -143 -178 -143 -18 0 -41 5 -51 10 -39 21 -44 48 -41 217 4
236 17 238 -265 -34 -124 -120 -237 -224 -251 -232 -62 -32 -143 14 -143 82 0
43 19 72 74 116 40 32 622 578 736 690 41 40 66 69 54 63 -27 -14 -135 7 -159
32 -17 16 -18 16 -38 -1 l-21 -18 20 27 c18 26 43 40 28 16 -4 -7 -3 -8 5 -4
6 4 9 11 6 16 -3 4 19 32 47 61 72 72 21 32 -74 -60 -43 -41 -75 -78 -72 -83
3 -5 1 -7 -4 -6 -12 4 -81 -61 -475 -446 -181 -177 -339 -326 -350 -333 -49
-28 -123 -6 -145 42 -30 65 -21 80 121 220 73 72 154 146 181 164 27 19 191
172 364 340 511 497 760 733 815 775 29 21 81 53 117 70 71 34 66 33 375 26
183 -5 250 28 480 235 72 65 204 190 295 279 91 89 281 272 424 406 142 135
336 318 430 407 312 297 510 479 555 511 24 18 81 44 125 58 71 22 108 27 306
35 328 14 509 56 705 163 44 25 81 45 82 45 1 1 0 -14 -4 -31z m-5989 -173
c45 -118 109 -181 220 -215 l49 -15 -76 -38 c-99 -49 -156 -111 -196 -215 -17
-45 -32 -71 -35 -62 -67 186 -103 228 -243 285 -32 13 -51 26 -43 28 125 38
191 92 245 200 19 38 35 78 35 88 0 37 16 17 44 -56z m6216 -245 c11 -11 20
-32 20 -47 0 -30 12 -18 -385 -398 -143 -137 -336 -324 -430 -416 -152 -148
-526 -504 -565 -537 -8 -7 -30 -24 -49 -37 -19 -14 -31 -25 -26 -25 10 0 -26
-29 -37 -30 -5 0 -8 16 -8 36 0 22 -6 41 -16 49 -14 10 -15 15 -4 36 8 14 15
19 18 11 7 -21 42 -14 42 8 0 11 -5 20 -12 20 -6 0 1 13 17 30 15 16 32 27 37
24 5 -3 7 0 6 8 -2 7 3 12 10 10 8 -1 11 2 8 6 -6 10 627 631 974 957 58 54
153 147 213 207 116 117 145 130 187 88z m-187 -654 c18 -7 45 -28 60 -45 22
-26 27 -43 27 -85 0 -67 -3 -71 -220 -281 -96 -93 -274 -266 -395 -385 -495
-485 -973 -940 -989 -940 -3 0 -6 5 -6 10 0 6 3 9 8 8 4 -2 8 2 8 7 3 20 -9
35 -27 35 -12 0 -19 7 -19 19 0 11 -9 23 -20 26 -11 3 -20 13 -20 21 0 8 -9
14 -20 14 -12 0 -20 7 -20 16 0 8 -7 23 -16 32 -11 11 -13 17 -5 20 6 2 9 8 5
13 -3 5 2 9 10 9 9 0 16 7 16 15 0 8 11 17 25 21 14 3 25 12 25 18 0 12 110
122 535 537 378 368 520 506 696 673 97 92 187 181 199 198 21 28 69 57 98 58
7 0 27 -6 45 -14z m-3492 -319 c-10 -9 -11 -8 -5 6 3 10 9 15 12 12 3 -3 0
-11 -7 -18z m-101 -100 c0 -2 -15 -16 -32 -33 l-33 -29 29 33 c28 30 36 37 36
29z m-1898 -1864 c35 -38 42 -65 24 -105 -8 -19 -181 -200 -419 -437 l-405
-404 -38 6 c-73 12 -119 87 -94 152 13 35 233 259 573 586 l239 229 47 0 c39
0 52 -5 73 -27z"/>
<path d="M5000 7834 c-284 -33 -550 -101 -769 -196 -215 -94 -465 -243 -641
-382 -173 -138 -393 -381 -537 -596 -174 -259 -345 -703 -404 -1055 -44 -262
-34 -649 25 -960 35 -187 99 -397 157 -519 l32 -67 90 88 c50 48 125 122 167
163 42 41 267 259 500 485 234 225 544 526 690 670 146 143 348 342 450 440
221 215 296 301 349 405 84 161 149 394 157 563 2 49 6 93 9 98 4 5 13 55 21
111 41 282 122 491 256 662 21 27 37 54 35 60 -2 6 -24 14 -48 18 -50 9 -486
18 -539 12z m-534 -460 c51 -50 74 -25 -575 -649 -145 -140 -267 -252 -272
-250 -4 3 -10 -3 -14 -14 -3 -10 -15 -27 -26 -37 -17 -16 -19 -16 -13 -1 4 11
0 19 -10 23 -10 4 -16 18 -16 36 0 21 -4 27 -12 22 -7 -4 -5 2 5 14 11 11 16
25 13 30 -3 6 8 15 24 21 17 5 30 13 30 16 0 3 -6 3 -12 -1 -27 -15 74 86 632
632 206 202 204 201 246 158z m251 -269 c67 -19 95 -120 51 -182 -13 -18 -210
-210 -438 -429 -228 -218 -482 -463 -565 -543 -257 -251 -606 -586 -619 -593
-21 -12 -66 3 -66 23 0 11 -7 19 -16 19 -9 0 -18 9 -21 20 -3 11 -14 20 -24
20 -12 0 -19 7 -19 19 0 11 -9 23 -21 26 -15 5 -17 10 -10 19 6 7 7 17 3 21
-4 5 1 5 11 2 10 -4 16 -3 13 2 -3 5 3 20 15 32 11 13 17 18 13 10 -5 -9 -3
-12 4 -7 7 4 12 13 12 19 0 14 244 257 760 757 645 627 782 753 827 767 37 11
46 11 90 -2z m34 -664 c-6 -10 -7 -21 -4 -25 14 -13 34 -5 43 19 11 29 49 34
74 10 8 -8 20 -15 26 -15 6 0 8 -5 5 -10 -4 -7 -14 -5 -28 5 -28 20 -67 20
-67 0 0 -8 5 -15 10 -15 6 0 10 -7 10 -15 0 -18 -12 -19 -27 -4 -5 5 -29 11
-52 12 -22 1 -41 3 -41 6 0 4 53 51 58 51 1 0 -2 -8 -7 -19z m169 -71 c-8 -5
-19 -3 -27 5 -15 16 -17 29 -3 20 6 -3 13 2 17 11 6 16 8 15 17 -5 7 -17 6
-25 -4 -31z m-1370 26 c0 -2 -7 -9 -15 -16 -13 -11 -14 -10 -9 4 5 14 24 23
24 12z m1133 -11 c-3 -9 -8 -14 -10 -11 -3 3 -2 9 2 15 9 16 15 13 8 -4z"/>
<path d="M2429 7073 c-13 -16 -12 -17 4 -4 9 7 17 15 17 17 0 8 -8 3 -21 -13z"/>
<path d="M2301 6887 c-13 -21 -12 -21 5 -5 10 10 16 20 13 22 -3 3 -11 -5 -18
-17z"/>
<path d="M2265 6830 c-9 -16 -13 -30 -11 -30 3 0 12 14 21 30 9 17 13 30 11
30 -3 0 -12 -13 -21 -30z"/>
<path d="M2234 6778 c-4 -7 -14 -23 -22 -35 -8 -13 -10 -23 -6 -23 9 0 48 70
39 70 -2 0 -7 -6 -11 -12z"/>
<path d="M2521 6578 c-15 -43 -8 -45 12 -3 9 19 13 35 8 35 -5 0 -14 -14 -20
-32z"/>
<path d="M4360 4390 c0 -5 5 -10 11 -10 5 0 7 5 4 10 -3 6 -8 10 -11 10 -2 0
-4 -4 -4 -10z"/>
<path d="M3105 3951 c-3 -5 -1 -12 5 -16 5 -3 10 1 10 9 0 18 -6 21 -15 7z"/>
<path d="M5673 2303 c9 -2 23 -2 30 0 6 3 -1 5 -18 5 -16 0 -22 -2 -12 -5z"/>
<path d="M6341 4940 c-58 -42 -81 -84 -81 -145 0 -69 32 -124 90 -152 55 -29
101 -29 157 -2 131 64 131 250 -1 310 -62 28 -115 25 -165 -11z"/>
<path d="M5950 4553 c-139 -72 -80 -280 74 -260 59 8 116 70 116 127 0 105
-104 177 -190 133z"/>
</g>
</svg>
